<svg xmlns="http://www.w3.org/2000/svg" viewBox="0 0 900 520" role="img" aria-label="SUV silhouette">
  <defs>
    <linearGradient id="bg" x1="0" x2="1" y1="0" y2="1">
      <stop offset="0" stop-color="#0f172a"/>
      <stop offset="0.55" stop-color="#111827"/>
      <stop offset="1" stop-color="#155e75"/>
    </linearGradient>
  </defs>
  <rect width="900" height="520" fill="url(#bg)"/>
  <circle cx="660" cy="120" r="190" fill="#22d3ee" opacity="0.12"/>
  <path d="M118 395c2-53 36-93 88-104l72-83c24-27 57-42 93-42h198c49 0 91 28 112 72l34 71 38 10c38 11 63 42 66 76H118Z" fill="#1e293b" stroke="#67e8f9" stroke-opacity="0.35" stroke-width="5"/>
  <path d="M320 194h119v91H244l76-91Zm143 0h100c39 0 71 21 88 56l17 35H463v-91Z" fill="#94a3b8" opacity="0.16"/>
  <circle cx="248" cy="400" r="62" fill="#020617" stroke="#64748b" stroke-width="14"/>
  <circle cx="248" cy="400" r="24" fill="#334155"/>
  <circle cx="665" cy="400" r="62" fill="#020617" stroke="#64748b" stroke-width="14"/>
  <circle cx="665" cy="400" r="24" fill="#334155"/>
</svg>
