<svg xmlns="http://www.w3.org/2000/svg" viewBox="0 0 900 520" role="img" aria-label="Van silhouette">
  <defs>
    <linearGradient id="bg" x1="0" x2="1" y1="0" y2="1">
      <stop offset="0" stop-color="#0f172a"/>
      <stop offset="0.55" stop-color="#111827"/>
      <stop offset="1" stop-color="#155e75"/>
    </linearGradient>
  </defs>
  <rect width="900" height="520" fill="url(#bg)"/>
  <circle cx="690" cy="130" r="180" fill="#22d3ee" opacity="0.12"/>
  <path d="M109 389V198c0-36 29-65 65-65h416c55 0 102 38 114 92l31 137c49 7 79 30 86 27H109Z" fill="#1e293b" stroke="#67e8f9" stroke-opacity="0.35" stroke-width="5"/>
  <rect x="171" y="178" width="180" height="118" rx="13" fill="#94a3b8" opacity="0.15"/>
  <path d="M402 178h157c41 0 76 28 85 68l11 50H402V178Z" fill="#94a3b8" opacity="0.15"/>
  <circle cx="260" cy="394" r="60" fill="#020617" stroke="#64748b" stroke-width="14"/>
  <circle cx="260" cy="394" r="23" fill="#334155"/>
  <circle cx="680" cy="394" r="60" fill="#020617" stroke="#64748b" stroke-width="14"/>
  <circle cx="680" cy="394" r="23" fill="#334155"/>
</svg>
